<svg xmlns="http://www.w3.org/2000/svg" width="71" height="43" fill="none"><clipPath id="a"><path d="M0 .492h70.154v42H0z"/></clipPath><g clip-path="url(#a)"><path fill="#fff" d="M19.939 15.815c0 .854.092 1.547.253 2.054.185.508.416 1.062.739 1.662.115.184.161.369.161.53 0 .231-.138.462-.438.693l-1.454.969a1.106 1.106 0 0 1-.6.208c-.23 0-.462-.116-.692-.323a7.139 7.139 0 0 1-.831-1.085c-.23-.392-.462-.83-.715-1.362-1.8 2.124-4.062 3.185-6.785 3.185-1.938 0-3.485-.554-4.615-1.661-1.131-1.108-1.708-2.585-1.708-4.431 0-1.962.692-3.554 2.1-4.754 1.408-1.2 3.277-1.8 5.654-1.8.784 0 1.592.07 2.446.185.854.115 1.73.3 2.654.507V8.708c0-1.754-.37-2.977-1.085-3.693-.738-.715-1.985-1.061-3.761-1.061a10.5 10.5 0 0 0-2.493.3c-.854.207-1.684.461-2.492.784a6.62 6.62 0 0 1-.808.3c-.161.047-.277.07-.369.07-.323 0-.485-.231-.485-.716v-1.13c0-.37.047-.647.162-.808.115-.162.323-.323.646-.485.808-.415 1.777-.761 2.908-1.038 1.13-.3 2.33-.439 3.6-.439 2.746 0 4.754.623 6.046 1.87 1.27 1.246 1.915 3.138 1.915 5.676v7.477zm-9.37 3.508c.762 0 1.546-.138 2.377-.415.831-.277 1.57-.785 2.193-1.477.369-.439.646-.923.784-1.477.139-.554.23-1.223.23-2.008v-.97c-.668-.16-1.384-.3-2.122-.391a17.37 17.37 0 0 0-2.17-.139c-1.546 0-2.676.3-3.438.923-.761.623-1.13 1.5-1.13 2.654 0 1.085.276 1.892.853 2.446.554.577 1.362.854 2.423.854zM29.1 21.815c-.415 0-.692-.069-.877-.23-.184-.139-.346-.462-.484-.9L22.315 2.846c-.138-.461-.207-.761-.207-.923 0-.37.184-.577.554-.577h2.261c.439 0 .739.07.9.23.185.14.323.462.462.9l3.877 15.278 3.6-15.277c.115-.462.253-.762.438-.9.185-.139.508-.23.923-.23h1.846c.439 0 .739.068.923.23.185.138.346.461.439.9l3.646 15.461 3.992-15.461c.139-.462.3-.762.462-.9.184-.139.484-.23.9-.23h2.146c.37 0 .577.184.577.576 0 .115-.023.23-.046.37-.023.138-.07.322-.162.576l-5.561 17.839c-.139.461-.3.761-.485.9-.185.138-.485.23-.877.23h-1.985c-.438 0-.738-.069-.923-.23-.184-.162-.346-.462-.438-.923L36 5.8l-3.554 14.862c-.115.461-.254.761-.438.923-.185.161-.508.23-.923.23zm29.654.623c-1.2 0-2.4-.138-3.554-.415-1.154-.277-2.054-.577-2.654-.923-.369-.208-.623-.438-.715-.646s-.139-.439-.139-.646V18.63c0-.485.185-.716.531-.716.139 0 .277.023.416.07.138.046.346.138.576.23a12.55 12.55 0 0 0 2.539.808 13.86 13.86 0 0 0 2.746.277c1.454 0 2.585-.254 3.37-.762s1.2-1.246 1.2-2.192c0-.646-.208-1.177-.624-1.615s-1.2-.831-2.33-1.2l-3.347-1.039c-1.684-.53-2.93-1.315-3.692-2.354-.762-1.015-1.154-2.146-1.154-3.346 0-.969.208-1.823.623-2.561s.97-1.385 1.662-1.893c.692-.53 1.477-.923 2.4-1.2C57.53.861 58.5.746 59.515.746c.508 0 1.039.023 1.547.092.53.07 1.015.162 1.5.254.461.116.9.231 1.315.37s.738.276.97.415c.322.184.553.37.692.577.138.184.207.438.207.761V4.3c0 .485-.184.738-.53.738-.185 0-.485-.092-.877-.277-1.316-.6-2.793-.9-4.431-.9-1.316 0-2.354.208-3.07.647s-1.084 1.107-1.084 2.053c0 .647.23 1.2.692 1.639.462.438 1.316.877 2.539 1.27l3.277 1.038c1.661.53 2.861 1.269 3.576 2.215.716.946 1.062 2.03 1.062 3.23 0 .993-.208 1.893-.6 2.678a6.207 6.207 0 0 1-1.685 2.03c-.715.577-1.569.993-2.561 1.293a10.973 10.973 0 0 1-3.3.484z"/><g fill="#f90" fill-rule="evenodd" clip-rule="evenodd"><path d="M63.116 33.654c-7.592 5.607-18.623 8.584-28.108 8.584-13.292 0-25.269-4.915-34.315-13.084-.715-.646-.07-1.523.784-1.016 9.785 5.677 21.854 9.116 34.339 9.116 8.423 0 17.677-1.754 26.192-5.354 1.27-.577 2.354.83 1.108 1.754z"/><path d="M66.277 30.054c-.97-1.246-6.416-.6-8.885-.3-.738.092-.854-.554-.184-1.039 4.338-3.046 11.469-2.169 12.3-1.154.83 1.039-.231 8.17-4.293 11.585-.623.53-1.223.254-.946-.438.923-2.285 2.977-7.431 2.008-8.654z"/></g></g></svg>