<svg xmlns="http://www.w3.org/2000/svg" width="53" height="54" fill="none"><linearGradient id="a" x1="23.645" x2="8.716" y1="7.497" y2="51.601" gradientUnits="userSpaceOnUse"><stop offset="0" stop-color="#114a8b"/><stop offset="1" stop-color="#0669bc"/></linearGradient><linearGradient id="b" x1="28.308" x2="24.855" y1="28.051" y2="29.218" gradientUnits="userSpaceOnUse"><stop offset="0" stop-opacity=".3"/><stop offset=".071" stop-opacity=".2"/><stop offset=".321" stop-opacity=".1"/><stop offset=".623" stop-opacity=".05"/><stop offset="1" stop-opacity="0"/></linearGradient><linearGradient id="c" x1="26.41" x2="42.797" y1="6.211" y2="49.87" gradientUnits="userSpaceOnUse"><stop offset="0" stop-color="#3ccbf4"/><stop offset="1" stop-color="#2892df"/></linearGradient><path fill="url(#a)" d="M18.406 4.105h14.375L17.858 48.32a2.292 2.292 0 0 1-2.171 1.559H4.5a2.288 2.288 0 0 1-2.169-3.02L16.234 5.664a2.292 2.292 0 0 1 2.172-1.559z"/><path fill="#0078d4" d="M39.295 33.761H16.499a1.056 1.056 0 0 0-.72 1.827L30.427 49.26c.426.398.988.619 1.571.619h12.908z"/><path fill="url(#b)" d="M18.405 4.105a2.273 2.273 0 0 0-2.177 1.59L2.348 46.822a2.286 2.286 0 0 0 2.157 3.057H15.98a2.452 2.452 0 0 0 1.883-1.601l2.768-8.158 9.887 9.222a2.34 2.34 0 0 0 1.472.537h12.86l-5.64-16.117-16.442.003 10.063-29.66z"/><path fill="url(#c)" d="M36.767 5.662a2.289 2.289 0 0 0-2.169-1.557h-16.02a2.289 2.289 0 0 1 2.168 1.557L34.649 46.86a2.289 2.289 0 0 1-2.168 3.02h16.021a2.29 2.29 0 0 0 2.168-3.02z"/></svg>