<svg xmlns="http://www.w3.org/2000/svg" width="159" height="36" fill="none"><clipPath id="a"><path d="M.382.185h158v35h-158z"/></clipPath><g fill="#fff" clip-path="url(#a)"><path d="M.71 14.878a.713.713 0 0 0-.712.827l3.024 18.358a.969.969 0 0 0 .948.809h14.508a.713.713 0 0 0 .712-.599l3.031-18.561a.711.711 0 0 0-.712-.827zm12.734 13.269h-4.63L7.56 21.6h7.006z" opacity=".6"/><path d="M21.252 21.6h-6.686l-1.122 6.546h-4.63L3.346 34.64c.173.15.394.233.624.235H18.48a.712.712 0 0 0 .712-.598zM57.164 2.044c0 .926.431 1.66 2.109 1.984 1 .21 1.211.357 1.211.713s-.21.534-.915.534a5.169 5.169 0 0 1-2.433-.659v1.507a4.987 4.987 0 0 0 2.415.523c1.756 0 2.45-.783 2.45-1.944m0 0c0-1.098-.58-1.614-2.222-1.967-.905-.2-1.126-.399-1.126-.687 0-.356.324-.517.926-.517a5.21 5.21 0 0 1 2.12.524V.63a4.787 4.787 0 0 0-2.077-.445c-1.62 0-2.461.712-2.461 1.86M79.711.281v6.266h1.336V1.77l.563 1.268 1.891 3.509h1.678V.28h-1.336v4.043l-.506-1.172L81.82.282zM71.22.281h-1.46v6.27h1.46zM68.075 4.698c0-1.097-.581-1.614-2.223-1.966-.905-.2-1.126-.4-1.126-.688 0-.356.324-.516.926-.516a5.211 5.211 0 0 1 2.12.523V.627a4.788 4.788 0 0 0-2.073-.442c-1.62 0-2.461.712-2.461 1.86 0 .925.43 1.66 2.108 1.983 1.001.21 1.211.357 1.211.713s-.21.534-.915.534a5.168 5.168 0 0 1-2.433-.659v1.507a4.987 4.987 0 0 0 2.415.523c1.756 0 2.45-.783 2.45-1.944M45.823.281v6.266h3.003l.47-1.354h-2.002V.281zM39.896.281v1.354h1.624v4.912h1.468V1.635h1.735V.28zM37.755.281h-1.923l-2.187 6.27h1.67l.31-1.07a4.15 4.15 0 0 0 2.337 0l.31 1.07h1.67zm-.962 4.082c-.27 0-.54-.038-.801-.114l.801-2.735.802 2.735a2.85 2.85 0 0 1-.791.114zM53.998.281h-1.924l-2.187 6.27h1.67l.31-1.07a4.15 4.15 0 0 0 2.337 0l.31 1.07h1.67zm-.962 4.082a2.85 2.85 0 0 1-.801-.114l.801-2.735.801 2.735a2.85 2.85 0 0 1-.805.114zM76.477.281h-1.923l-2.187 6.27h1.67l.31-1.07a4.15 4.15 0 0 0 2.337 0l.31 1.07h1.67zm-.965 4.082c-.271 0-.541-.038-.802-.114l.802-2.739.801 2.736a2.85 2.85 0 0 1-.801.117zM41.627 14.28c4.2 0 6.237 2.07 6.237 5.393 0 2.493-1.13 4.01-3.448 4.577 3.042.502 4.545 2.162 4.545 5.08 0 3.29-2.226 5.549-6.832 5.549h-8.495v-20.6zm-5.172 2.696v6.141h4.794c2.665 0 3.762-1.222 3.762-3.206s-1.19-2.946-3.762-2.946zm0 8.652v6.412h5.767c2.696 0 3.918-.973 3.918-3.042 0-2.194-1.161-3.384-3.979-3.384zM53.57 13.183a1.76 1.76 0 0 1 1.881 1.88 1.88 1.88 0 1 1-3.761 0 1.76 1.76 0 0 1 1.88-1.88zm-1.378 6.016h2.696v15.673h-2.696zM65.182 32.243a8.552 8.552 0 0 0 1.692-.221v2.6a6.48 6.48 0 0 1-1.816.25c-3.356 0-4.987-1.974-4.987-4.891v-8.275h-2.54v-2.493h2.54v-3.334h2.618v3.323h4.168v2.494h-4.168v8.224c0 1.379.816 2.323 2.493 2.323zM77.987 35.185c-2.286 0-4.043-1.033-4.986-3.07v2.756h-2.697v-22.22h2.714v9.369c1.005-2.07 2.886-3.135 5.297-3.135 4.168 0 6.27 3.54 6.27 8.15-.015 4.42-2.21 8.15-6.598 8.15zm-.41-13.792c-2.421 0-4.559 1.539-4.559 5.015v1.254c0 3.48 1.974 5.015 4.275 5.015 3.042 0 4.609-2.005 4.609-5.642-.029-3.761-1.532-5.642-4.324-5.642zM87.391 19.199h2.696v9.482c0 2.82 1.13 4.075 3.698 4.075 2.493 0 4.231-1.66 4.231-4.827V19.2h2.697V34.87h-2.696v-2.568a5.497 5.497 0 0 1-4.952 2.885c-3.604 0-5.674-2.493-5.674-6.803zM115.852 34.465c-.941.503-2.383.713-3.826.713-5.578 0-8.193-3.384-8.193-8.193 0-4.733 2.601-8.117 8.193-8.117a8.288 8.288 0 0 1 3.737.773v2.493a7.904 7.904 0 0 0-3.562-.741c-4.075 0-5.735 2.572-5.735 5.61 0 3.039 1.706 5.596 5.813 5.596a9.9 9.9 0 0 0 3.562-.563zM118.925 34.871v-22.22h2.697v13.893l6.739-7.335h3.512l-7.37 7.69 7.68 7.972h-3.669l-6.896-7.334v7.334zM141.116 35.185c-5.863 0-8.431-3.384-8.431-8.193 0-4.734 2.632-8.118 7.398-8.118 4.827 0 6.768 3.356 6.768 8.118v1.222H135.41c.378 2.664 2.102 4.388 5.799 4.388a13.892 13.892 0 0 0 4.766-.847v2.493c-1.286.688-3.259.937-4.859.937zm-5.735-9.261h8.745c-.157-2.914-1.475-4.577-4.167-4.577-2.857-.015-4.296 1.834-4.578 4.562zM156.255 32.243a8.55 8.55 0 0 0 1.692-.221v2.6a6.481 6.481 0 0 1-1.817.25c-3.355 0-4.986-1.974-4.986-4.891v-8.275h-2.54v-2.493h2.54v-3.334h2.632v3.323h4.168v2.494h-4.168v8.224c.004 1.379.812 2.323 2.479 2.323z"/></g></svg>