<svg xmlns="http://www.w3.org/2000/svg" width="115" height="33" fill="none"><g fill="#fff"><path d="M47.042 21.306h-1.527a.326.326 0 0 0-.26.13 4.932 4.932 0 1 1 0-5.52c.062.081.158.131.26.131h1.527a.33.33 0 0 0 .294-.476 6.902 6.902 0 0 0-6.168-3.799 6.907 6.907 0 1 0 6.167 10.013.318.318 0 0 0 .036-.147.331.331 0 0 0-.33-.329zm4.604-11.838c0 1.753-2.63 1.753-2.63 0 0-1.754 2.63-1.754 2.63 0zm-.328 15.455V12.099h-1.973v12.824a.33.33 0 0 0 .328.329h1.316a.33.33 0 0 0 .33-.33zm8.557-13.145c-1.99.094-3.58 1.045-4.609 2.497v-1.848a.33.33 0 0 0-.329-.328h-1.314a.33.33 0 0 0-.329.328v12.496c0 .18.147.329.329.329h1.315a.33.33 0 0 0 .329-.33v-6.247a4.94 4.94 0 0 1 4.604-4.921.33.33 0 0 0 .33-.33v-1.318a.33.33 0 0 0-.324-.329zm13.105 9.518h-1.527a.326.326 0 0 0-.26.13 4.932 4.932 0 1 1-4.088-7.693c1.7 0 3.2.862 4.087 2.175.062.08.159.13.26.13h1.538a.331.331 0 0 0 .33-.329.321.321 0 0 0-.037-.147 6.903 6.903 0 0 0-6.166-3.799 6.906 6.906 0 1 0 6.166 10.013.317.317 0 0 0 .036-.147.331.331 0 0 0-.33-.329zm3.947-13.483h-1.315a.33.33 0 0 0-.329.33v16.77a.33.33 0 0 0 .329.33h1.315a.33.33 0 0 0 .329-.33V8.152a.33.33 0 0 0-.329-.329zm9.218 3.948a6.906 6.906 0 1 0 6.166 10.013.326.326 0 0 0-.292-.476h-1.536a.328.328 0 0 0-.266.135 4.927 4.927 0 0 1-4.082 2.166 4.935 4.935 0 0 1-4.89-4.275h11.456a.33.33 0 0 0 .328-.312l.01-.346a6.906 6.906 0 0 0-6.905-6.906zm-4.754 5.59c.576-2.083 2.484-3.606 4.754-3.606s4.178 1.533 4.754 3.607zm30.76-9.865c-2.631 0-2.631 3.947 0 3.947s2.631-3.947 0-3.947zm1.643 4.604v12.824a.33.33 0 0 1-.329.328h-2.631a.328.328 0 0 1-.231-.096.327.327 0 0 1-.097-.232V12.09zm-11.88 13.49a6.907 6.907 0 0 0 6.691-5.195.327.327 0 0 0-.089-.299.328.328 0 0 0-.231-.097h-2.784a.33.33 0 0 0-.298.193 3.62 3.62 0 0 1-6.463.227 3.617 3.617 0 1 1 6.462-3.242.326.326 0 0 0 .298.192h2.784a.328.328 0 0 0 .32-.395 6.906 6.906 0 1 0-6.691 8.616zM15.763 20.354a3.818 3.818 0 1 0 0-7.635 3.818 3.818 0 0 0 0 7.635z"/><path d="M15.763.506C8.293.506 2.017 5.616.237 12.529a.783.783 0 0 0-.027.19c0 .42.342.764.764.764h6.465a.755.755 0 0 0 .692-.448l.014-.028a8.397 8.397 0 1 1 .001 7.053l-.014-.028a.762.762 0 0 0-.692-.447H.975a.763.763 0 0 0-.737.954c1.78 6.913 8.058 12.023 15.527 12.023 8.854-.002 16.044-7.178 16.044-16.031C31.81 7.678 24.633.5 15.78.5z"/></g></svg>