<svg xmlns="http://www.w3.org/2000/svg" width="304" height="347" fill="none"><clipPath id="a"><path d="M0 0h304v346.667H0z"/></clipPath><g clip-path="url(#a)"><g stroke="#00084d"><path stroke-dasharray="4 4" stroke-miterlimit="10" stroke-width="2" d="m288.524 253.096.766-.446v-.892M289.29 248.226V96.675M289.29 94.909v-.892l-.766-.446M285.475 91.822 154.3 16.038M152.767 15.164l-.767-.446-.767.446M148.167 16.93 17.01 92.697M15.476 93.57l-.766.447v.892M14.71 98.441v151.551M14.71 251.758v.892l.766.446M18.525 254.844 149.7 330.628M151.233 331.503l.767.446.767-.446M155.816 329.754 286.99 253.97"/><path fill="#8bc7f5" stroke-linecap="round" stroke-linejoin="round" stroke-width="2" d="M14.71 107.771c7.631 0 13.818-6.19 13.818-13.826 0-7.635-6.187-13.826-13.818-13.826C7.078 80.12.892 86.31.892 93.945s6.186 13.826 13.818 13.826zM14.71 266.476c7.631 0 13.818-6.19 13.818-13.826s-6.187-13.826-13.818-13.826c-7.632 0-13.818 6.19-13.818 13.826s6.186 13.826 13.818 13.826zM289.29 107.771c7.632 0 13.819-6.19 13.819-13.826 0-7.635-6.187-13.826-13.819-13.826-7.631 0-13.818 6.19-13.818 13.826s6.187 13.826 13.818 13.826zM152 28.544c7.632 0 13.818-6.19 13.818-13.826S159.632.892 152 .892s-13.818 6.19-13.818 13.826S144.368 28.544 152 28.544zM152 345.775c7.632 0 13.818-6.19 13.818-13.826s-6.186-13.826-13.818-13.826-13.818 6.19-13.818 13.826 6.186 13.826 13.818 13.826zM289.29 266.476c7.632 0 13.819-6.19 13.819-13.826s-6.187-13.826-13.819-13.826c-7.631 0-13.818 6.19-13.818 13.826s6.187 13.826 13.818 13.826z"/><path stroke-linejoin="round" stroke-width="2" d="M48.979 113.819 152 173.333l103.021-59.514L152 54.305z"/><path stroke-dasharray="4 4" stroke-linecap="round" stroke-linejoin="round" stroke-miterlimit="10" stroke-width="2" d="M48.979 232.848 152 292.362l103.021-59.514L152 173.333z"/><path stroke-linejoin="round" stroke-width="2" d="M48.979 113.819 152 173.333v119.029L48.979 232.848zM255.021 113.819 152 173.333v119.029l103.021-59.514z"/><path stroke-miterlimit="10" stroke-width="2" d="M152 54.305v119.028"/><path fill="#8bc7f5" stroke-linecap="round" stroke-linejoin="round" d="M104.073 145.646 152 173.333l47.927-27.687L152 117.958z"/><path fill="#1c90ed" stroke-linejoin="round" d="M104.073 145.646 152 173.333v55.376l-47.927-27.688z"/></g><path fill="#00084d" d="M199.927 145.646 152 173.333v55.376l47.927-27.688z"/><path fill="#8bc7f5" stroke="#00084d" stroke-linecap="round" stroke-linejoin="round" stroke-width="2" d="M104.073 90.27 152 117.958l47.927-27.688L152 62.583z"/><path fill="#1c90ed" stroke="#00084d" stroke-linejoin="round" stroke-width="2" d="M104.073 90.27 152 117.958v55.375l-47.927-27.687z"/><path fill="#00084d" stroke="#00084d" stroke-linejoin="round" stroke-width="2" d="M199.927 90.27 152 117.958v55.375l47.927-27.687z"/><path fill="#8bc7f5" stroke="#00084d" stroke-linecap="round" stroke-linejoin="round" stroke-width="2" d="m152 173.333 47.927 27.688 47.927-27.688-47.927-27.687z"/><path fill="#1c90ed" stroke="#00084d" stroke-linejoin="round" stroke-width="2" d="m152 173.333 47.927 27.688v55.375L152 228.709z"/><path fill="#00084d" stroke="#00084d" stroke-linejoin="round" stroke-width="2" d="m247.854 173.333-47.927 27.688v55.375l47.927-27.687z"/><path fill="#8bc7f5" stroke="#00084d" stroke-linecap="round" stroke-linejoin="round" stroke-width="2" d="m56.129 173.333 47.944 27.688L152 173.333l-47.927-27.687z"/><path fill="#1c90ed" stroke="#00084d" stroke-linejoin="round" stroke-width="2" d="m56.129 173.333 47.944 27.688v55.375l-47.944-27.687z"/><path fill="#00084d" stroke="#00084d" stroke-linejoin="round" stroke-width="2" d="m152 173.333-47.927 27.688v55.375L152 228.709z"/></g></svg>