<svg xmlns="http://www.w3.org/2000/svg" width="127" height="41" fill="none"><g fill="#fff"><path d="m15.86 17.628 9.63 4.388 9.714-8.521c.15-.703.213-1.385.213-2.13C35.417 5.378 30.539.5 24.552.5a10.835 10.835 0 0 0-8.947 4.73l-1.62 8.371z" opacity=".6"/><path d="M5.89 27.81c-.149.704-.213 1.428-.213 2.174 0 6.007 4.9 10.886 10.886 10.886 3.6 0 6.966-1.79 8.99-4.751l1.598-8.35-2.13-4.091-9.672-4.41z"/><path d="m5.847 11.152 6.604 1.555L13.9 5.208a5.21 5.21 0 0 0-3.153-1.065A5.205 5.205 0 0 0 5.55 9.34c-.021.639.085 1.257.298 1.81z" opacity=".9"/><path d="M5.272 12.728C2.332 13.687.266 16.52.266 19.63a7.27 7.27 0 0 0 4.687 6.796l9.245-8.35-1.683-3.622z" opacity=".7"/><path d="M27.257 36.098c.916.682 2.003 1.086 3.132 1.086a5.205 5.205 0 0 0 5.198-5.198c0-.639-.107-1.235-.32-1.81l-6.582-1.534z"/><path d="m28.6 26.895 7.243 1.683c2.961-.959 5.006-3.792 5.006-6.924a7.291 7.291 0 0 0-4.686-6.796l-9.48 8.309z" opacity=".4"/><path d="m60.065 29.515.873-.085.064 1.79c-2.3.319-4.282.49-5.922.49-2.173 0-3.728-.64-4.623-1.897-.895-1.257-1.363-3.238-1.363-5.9 0-5.327 2.109-7.968 6.348-7.968 2.045 0 3.58.575 4.58 1.704 1.002 1.13 1.513 2.94 1.513 5.368l-.128 1.726H51.394c0 1.683.299 2.919.917 3.728s1.661 1.214 3.152 1.214a47.715 47.715 0 0 0 4.602-.17zm-.81-6.561c0-1.854-.298-3.175-.894-3.941s-1.555-1.15-2.898-1.15c-1.342 0-2.364.404-3.025 1.213s-1.022 2.11-1.044 3.878zM64.688 31.411V9.661h2.258v21.75zM81.283 20.845V28.3c0 .767 1.875.916 1.875.916l-.107 2.002c-1.597 0-2.918.128-3.728-.639-1.832.81-3.621 1.13-5.453 1.13-1.385 0-2.45-.384-3.175-1.194-.724-.788-1.086-1.917-1.086-3.408 0-1.47.362-2.557 1.108-3.26.745-.703 1.917-1.129 3.515-1.278l4.75-.447v-1.278c0-1.023-.213-1.769-.66-2.216-.447-.447-1.065-.66-1.832-.66h-5.965v-2.024h5.816c1.704 0 2.96.383 3.728 1.193.83.788 1.214 2.024 1.214 3.707zM71.953 27c0 1.854.766 2.791 2.3 2.791 1.385 0 2.727-.213 4.048-.682l.681-.234V23.87l-4.473.426c-.916.064-1.555.34-1.982.788-.426.447-.575 1.086-.575 1.917zM90.167 17.969c-2.195 0-3.302.767-3.302 2.3 0 .703.255 1.215.767 1.513.51.298 1.661.596 3.45.916 1.812.32 3.068.746 3.814 1.32.746.555 1.108 1.62 1.108 3.175s-.512 2.705-1.513 3.43c-1.001.724-2.45 1.086-4.388 1.086-1.236 0-5.433-.468-5.433-.468l.128-1.982c2.407.213 4.154.405 5.326.405s2.066-.192 2.684-.554.938-1.001.938-1.874-.256-1.47-.789-1.79c-.51-.32-1.683-.618-3.45-.895-1.79-.277-3.047-.681-3.793-1.235-.745-.533-1.108-1.555-1.108-3.025s.512-2.557 1.556-3.281c1.043-.703 2.343-1.065 3.877-1.065 1.235 0 5.496.32 5.496.32v1.98c-2.258-.106-4.09-.276-5.368-.276zM106.953 18.246h-4.814v7.243c0 1.725.128 2.876.362 3.43.256.532.852.81 1.811.81l2.705-.193.149 1.875c-1.363.213-2.386.341-3.089.341-1.576 0-2.663-.383-3.28-1.15-.618-.767-.916-2.237-.916-4.389v-7.967h-2.152v-1.982h2.152V11.62h2.258v4.623h4.814zM110.128 12.834v-2.62h2.258v2.642zm0 18.577V16.264h2.258v15.147zM122.249 15.945c.661 0 1.811.128 3.409.362l.724.085-.085 1.832c-1.619-.191-2.812-.277-3.579-.277-1.704 0-2.876.405-3.494 1.236-.618.81-.937 2.343-.937 4.559 0 2.215.277 3.75.852 4.623.575.873 1.768 1.3 3.579 1.3l3.579-.278.085 1.875c-1.875.277-3.281.426-4.218.426-2.365 0-4.005-.618-4.9-1.832-.894-1.214-1.363-3.26-1.363-6.135 0-2.876.49-4.9 1.449-6.072 1.001-1.108 2.62-1.704 4.899-1.704z"/></g></svg>