<svg xmlns="http://www.w3.org/2000/svg" width="127" height="33" fill="none"><clipPath id="a"><path d="M45.11 5.674h81.014v21.91H45.11z"/></clipPath><clipPath id="b"><path d="M.125.5h33.064v32.39H.125z"/></clipPath><g fill="#fff" clip-path="url(#a)"><path d="M60.713 15.051h-6.809a.317.317 0 0 0-.317.317v3.33c0 .174.142.318.317.318h2.657v4.137s-.596.202-2.245.202c-1.946 0-4.663-.71-4.663-6.684s2.83-6.762 5.486-6.762c2.3 0 3.291.405 3.92.6.199.062.381-.136.381-.312l.76-3.216a.29.29 0 0 0-.121-.248c-.257-.182-1.818-1.057-5.763-1.057-4.543-.002-9.206 1.932-9.206 11.226s5.337 10.68 9.836 10.68c3.725 0 5.983-1.593 5.983-1.593.092-.052.103-.182.103-.24V15.37a.317.317 0 0 0-.317-.317zM95.8 6.787c0-.178-.14-.32-.315-.32h-3.833a.319.319 0 0 0-.317.32v7.407H85.36V6.787a.317.317 0 0 0-.317-.32H81.21a.319.319 0 0 0-.317.32v20.059a.32.32 0 0 0 .317.322h3.833a.32.32 0 0 0 .317-.322v-8.581h5.974l-.011 8.579a.32.32 0 0 0 .317.321h3.841a.32.32 0 0 0 .317-.321zM67.946 9.419c0-1.381-1.106-2.497-2.472-2.497s-2.472 1.116-2.472 2.497c0 1.38 1.107 2.496 2.472 2.496s2.472-1.118 2.472-2.496zM67.672 22.615v-9.26a.319.319 0 0 0-.317-.32h-3.821c-.176 0-.333.18-.333.358v13.266c0 .39.243.506.558.506h3.443c.378 0 .47-.184.47-.512zM110.366 13.067h-3.804a.32.32 0 0 0-.317.322v9.836s-.967.706-2.337.706-1.736-.623-1.736-1.966v-8.579a.32.32 0 0 0-.317-.321h-3.86a.32.32 0 0 0-.317.321v9.227c0 3.988 2.222 4.964 5.281 4.964 2.508 0 4.532-1.386 4.532-1.386s.097.731.14.817a.335.335 0 0 0 .279.173l2.456-.011a.32.32 0 0 0 .317-.32V13.386a.321.321 0 0 0-.319-.321zM120.764 12.615c-2.162 0-3.63.965-3.63.965V6.787a.318.318 0 0 0-.318-.32h-3.844a.319.319 0 0 0-.317.32v20.059a.32.32 0 0 0 .317.322h2.668c.119 0 .211-.063.279-.171.065-.108.162-.925.162-.925s1.572 1.49 4.548 1.49c3.493 0 5.497-1.773 5.497-7.956 0-6.184-3.201-6.991-5.362-6.991zm-1.5 11.3c-1.321-.04-2.214-.639-2.214-.639v-6.352s.882-.542 1.966-.638c1.37-.124 2.69.29 2.69 3.558 0 3.446-.596 4.125-2.44 4.071zM78.69 13.034h-2.875l-.005-3.8c0-.143-.074-.215-.24-.215h-3.918c-.154 0-.235.067-.235.213v3.925s-1.963.475-2.096.513a.317.317 0 0 0-.23.306v2.467c0 .178.143.32.318.32h2.008v5.933c0 4.409 3.093 4.84 5.178 4.84.954 0 2.094-.305 2.283-.375.115-.042.18-.16.18-.288v-2.712c.003-.178-.146-.32-.315-.32s-.596.068-1.036.068c-1.413 0-1.892-.657-1.892-1.507v-5.64h2.875a.319.319 0 0 0 .317-.319v-3.09a.317.317 0 0 0-.317-.32z"/></g><g clip-path="url(#b)"><path fill="#fff" fill-rule="evenodd" d="M16.607.5C7.493.5.125 7.923.125 17.105c0 7.34 4.72 13.554 11.27 15.753.819.165 1.119-.357 1.119-.797 0-.385-.027-1.704-.027-3.08-4.585.99-5.54-1.979-5.54-1.979-.737-1.924-1.829-2.419-1.829-2.419-1.5-1.017.11-1.017.11-1.017 1.664.11 2.538 1.705 2.538 1.705 1.473 2.529 3.847 1.814 4.803 1.374.136-1.072.573-1.814 1.037-2.227-3.657-.385-7.505-1.814-7.505-8.193 0-1.814.655-3.299 1.692-4.453-.164-.412-.737-2.117.164-4.399 0 0 1.391-.44 4.53 1.705a15.847 15.847 0 0 1 4.12-.55c1.392 0 2.81.192 4.121.55 3.138-2.145 4.53-1.705 4.53-1.705.901 2.282.327 3.987.164 4.399 1.064 1.154 1.692 2.639 1.692 4.453 0 6.379-3.848 7.78-7.532 8.193.6.523 1.119 1.512 1.119 3.08 0 2.226-.027 4.013-.027 4.563 0 .44.3.963 1.118.798 6.55-2.2 11.271-8.413 11.271-15.754C33.09 7.923 25.695.5 16.607.5z" clip-rule="evenodd"/></g></svg>