<svg xmlns="http://www.w3.org/2000/svg" width="124" height="28" fill="none"><g fill="#fff"><path d="m27.334 11.093-.038-.1-3.783-9.866a1 1 0 0 0-1.89.102l-2.554 7.816H8.728L6.174 1.229a1 1 0 0 0-1.89-.102l-3.78 9.868-.04.098a7.02 7.02 0 0 0 2.33 8.116l.015.01.032.025 5.755 4.312 2.855 2.157 1.735 1.312a1.173 1.173 0 0 0 1.413 0l1.735-1.312 2.855-2.157 5.796-4.337.016-.012a7.022 7.022 0 0 0 2.332-8.114zM49.982 10.582h4.065c-.678-4.32-4.42-7.33-9.29-7.33-5.762 0-10.086 4.235-10.086 11.328 0 6.967 4.13 11.288 10.204 11.288 5.452 0 9.354-3.505 9.354-9.18v-2.645h-8.935v3.117h5.075c-.064 3.14-2.16 5.128-5.473 5.128-3.687 0-6.213-2.762-6.213-7.75 0-4.957 2.57-7.708 6.128-7.708 2.655 0 4.472 1.419 5.171 3.752zM56.917 25.567h3.892V9.064h-3.892zM58.88 6.442c1.237 0 2.247-.948 2.247-2.107 0-1.16-1.01-2.118-2.247-2.118s-2.257.945-2.257 2.118c0 1.172 1.003 2.107 2.25 2.107zM72.464 9.064h-3.259V5.1h-3.892v3.964H62.97v3.01h2.343v9.18c-.021 3.107 2.238 4.64 5.161 4.548a7.903 7.903 0 0 0 2.291-.387l-.656-3.044a4.746 4.746 0 0 1-1.139.152c-.98 0-1.765-.344-1.765-1.914v-8.544h3.259zM75.476 25.567h13.687v-3.343h-9.697V3.55h-3.99zM96.619 25.9c2.591 0 4.138-1.214 4.849-2.6h.128v2.267h3.748v-11.05c0-4.364-3.559-5.676-6.71-5.676-3.473 0-6.139 1.547-7 4.557l3.636.517c.385-1.13 1.483-2.096 3.39-2.096 1.808 0 2.797.924 2.797 2.548v.064c0 1.117-1.173 1.172-4.087 1.482-3.203.345-6.267 1.301-6.267 5.02-.01 3.248 2.365 4.968 5.516 4.968zm1.28-2.854c-1.624 0-2.786-.742-2.786-2.171 0-1.495 1.3-2.118 3.034-2.366 1.022-.139 3.065-.398 3.569-.804v1.944c.01 1.832-1.474 3.392-3.817 3.392zM108.209 25.567h3.828v-2.601h.225c.614 1.204 1.894 2.892 4.733 2.892 3.892 0 6.806-3.087 6.806-8.525 0-5.504-3-8.492-6.817-8.492-2.914 0-4.129 1.752-4.722 2.946h-.164V3.55h-3.889zm3.818-8.255c0-3.211 1.375-5.28 3.881-5.28 2.591 0 3.926 2.204 3.926 5.28s-1.355 5.352-3.926 5.352c-2.484 0-3.881-2.15-3.881-5.352z"/></g></svg>