<svg xmlns="http://www.w3.org/2000/svg" width="40" height="41" fill="none"><path stroke="#1D63ED" stroke-linecap="round" stroke-linejoin="round" stroke-width="2.5" d="m34.17 12.884-14.167 7.87m0 0-14.166-7.87m14.166 7.87v15.834m15-9.069V13.991c0-.572 0-.857-.084-1.112a1.666 1.666 0 0 0-.357-.606c-.181-.197-.431-.336-.93-.614L21.299 4.808c-.473-.263-.71-.394-.96-.446a1.667 1.667 0 0 0-.671 0c-.25.052-.487.183-.96.446L6.375 11.659c-.5.278-.749.416-.93.614-.161.174-.283.381-.357.606-.085.255-.085.54-.085 1.112v13.528c0 .571 0 .857.085 1.111.074.226.196.433.356.607.182.197.432.336.931.613l12.333 6.852c.473.263.71.394.96.445.221.046.45.046.671 0 .25-.051.487-.182.96-.445l12.333-6.852c.499-.277.749-.416.93-.613.161-.174.283-.381.357-.607.084-.254.084-.54.084-1.11Z"/><path stroke="#1D63ED" stroke-linecap="round" stroke-linejoin="round" stroke-opacity=".37" stroke-width="2.5" d="M24.997 24.088v5.002M29.997 20.755v5.002"/></svg>