<svg xmlns="http://www.w3.org/2000/svg" width="40" height="41" fill="none"><rect width="40" height="40" y=".755" fill="#1D63ED" rx="8.889"/><g clip-path="url(#a)"><path fill="#fff" d="M34.368 19.176c-.657-.442-2.384-.631-3.639-.293-.068-1.25-.712-2.304-1.892-3.224l-.436-.293-.291.44c-.573.868-.814 2.025-.728 3.076.067.648.293 1.377.727 1.905-1.634.948-3.14.733-9.81.733H8.003c-.03 1.506.212 4.403 2.054 6.761.204.26.427.513.67.756 1.497 1.5 3.76 2.6 7.144 2.603 5.163.004 9.586-2.786 12.277-9.534.885.015 3.222.16 4.366-2.051.028-.037.291-.586.291-.586l-.436-.294Zm-19.645-1.554h-2.896v2.895h2.896v-2.895Zm3.74 0h-2.895v2.895h2.896v-2.895Zm3.742 0h-2.896v2.895h2.896v-2.895Zm3.741 0H23.05v2.895h2.896v-2.895Zm-14.964 0H8.086v2.895h2.896v-2.895Zm3.74-3.658h-2.895v2.896h2.896v-2.896Zm3.742 0h-2.896v2.896h2.896v-2.896Zm3.741 0h-2.896v2.896h2.896v-2.896Zm0-3.658h-2.896v2.896h2.896v-2.896Z"/></g><defs><clipPath id="a"><path fill="#fff" d="M8 10.306h26.804V31.64H8z"/></clipPath></defs></svg>