<svg xmlns="http://www.w3.org/2000/svg" width="1920" height="2336" viewBox="0 0 1920 2336" fill="none"><g clip-path="url(#clip0_9494_3010)"><path d="M-773.472 216.986C-587.448 187.154 -413.948 293.743 -268.8 414.161C-123.659 534.578 14.4742 675.71 190.854 731.569C378.288 790.928 584.638 745.74 777.839 682.72C971.041 619.7 1163.4 538.42 1361.77 524.98C1631.07 506.732 1898.12 622.336 2076.32 834.298C2007.58 1166.08 1937.49 1513.2 1868.74 1844.98C1854.77 1912.41 1838.51 1984.41 1792.6 2032.96C1731.04 2098.06 1638.34 2099.29 1556.33 2095.07C1004.72 2066.64 458.275 1984.69 -74.8468 1850.46C-233.445 1810.53 -392.963 1765.06 -532.249 1676.26C-671.534 1587.46 -790.359 1449.69 -831.232 1275.01C-860.066 1151.77 -848.808 1019.28 -837.358 889.908C-817.587 666.562 -793.234 440.327 -773.472 216.986Z" fill="#0C49C2"/></g><g clip-path="url(#clip1_9494_3010)"><path d="M-758.41 352.975C-574.911 332.633 -400.486 433.386 -253.802 545.507C-107.124 657.627 33.1199 787.964 209.159 843.627C396.232 902.779 599.484 869.44 789.281 819.777C979.078 770.114 1167.6 704.158 1363.72 698.831C1629.98 691.597 1897.26 803.513 2078.92 998.283C2018.94 1291.5 1958 1598.35 1898.01 1891.57C1885.82 1951.17 1871.48 2014.75 1827.19 2056.46C1767.81 2112.39 1676.05 2110.38 1594.72 2103.87C1047.75 2060.07 504.583 1968.77 -26.6646 1831.36C-184.705 1790.48 -343.792 1744.63 -483.9 1660.87C-624.007 1577.11 -745.046 1450.41 -789.788 1293.45C-821.351 1182.71 -813.436 1065.08 -805.254 950.226C-791.126 751.948 -772.531 551.249 -758.41 352.975Z" fill="#1D63ED"/></g><defs><clipPath id="clip0_9494_3010"><rect width="2975.02" height="1696.04" fill="white" transform="translate(-696.755 -70.403) rotate(14.9461)"/></clipPath><clipPath id="clip1_9494_3010"><rect width="2969.53" height="1497.5" fill="white" transform="translate(-689.449 99.558) rotate(15.2229)"/></clipPath></defs></svg>