<svg xmlns="http://www.w3.org/2000/svg" width="125" height="33" fill="none"><clipPath id="a"><path d="M.43.548h123.836v32.274H.43z"/></clipPath><g clip-path="url(#a)"><path fill="#fff" d="m89.784 10.708-3.492.978c.319.89.55 2.484.55 4.596v10.475h3.904V15.67c.726-.889 1.512-1.317 2.387-1.317.434 0 .756.093 1.137.306l1.075-3.615c-.61-.275-.872-.338-1.456-.338-.434 0-.958.093-1.28.245-.726.368-1.658 1.194-2.212 1.99-.056-.889-.262-1.592-.61-2.235zM76.238 5.532h-.424v21.229h4.075v-9.404h5.15v-3.492h-5.15V8.994h6.43l.248-1.854a68.604 68.604 0 0 1-10.332-1.608zM66.692 29.58l1.89 2.209c1.834-.736 4.131-2.391 4.715-4.994.202-.856.289-1.41.289-4.165V5.58h-4.132v17.504c0 2.298-.086 3.154-.408 3.92-.378.859-1.31 1.9-2.358 2.573zm37.118-10.75c0 3.707-.726 5.299-2.414 5.299-.756 0-1.631-.428-1.98-1.283-.318-.796-.493-2.146-.493-3.953 0-1.562.142-2.663.408-3.492.318-.981 1.077-1.595 2.006-1.595.699 0 1.309.305 1.687.83.524.706.786 2.085.786 4.197zm2.388 6.098c1.28-1.532 1.863-3.372 1.863-6.065 0-2.543-.524-4.257-1.717-5.73-1.277-1.591-2.938-2.357-5.064-2.357-4.015 0-6.691 3.276-6.691 8.21s2.646 8.117 6.691 8.117c2.302 0 3.784-.829 4.921-2.175zm11.175-8.794c0 1.44-.846 2.238-2.388 2.238-1.369 0-2.301-.643-2.301-2.238 0-1.469.845-2.328 2.331-2.328 1.485 0 2.358.86 2.358 2.328zm6.897-3.339-1.628-2.603c-.902.859-2.01 1.35-3.084 1.35-.494 0-.756-.063-1.834-.339-1.078-.305-1.834-.398-2.676-.398-3.813 0-6.284 2.083-6.284 5.3 0 2.327 1.048 3.766 3.2 4.35-.872.215-1.833.673-2.271 1.194-.319.368-.468.858-.468 1.439 0 .49.116.918.292 1.286.202.338.494.614.846.763.699.278 1.833.46 3.578.49.901 0 1.455.03 1.657.03 1.078.064 1.629.246 2.036.461.408.242.7.796.7 1.41 0 .613-.378 1.227-.932 1.595-.524.364-1.369.517-2.473.517-1.808 0-2.792-.673-2.792-1.93 0-.55.059-.673.172-1.011h-3.608c-.142.305-.351.736-.351 1.595 0 1.07.411 1.99 1.223 2.785 1.337 1.316 3.522 1.685 5.647 1.685 2.328 0 4.57-.55 5.88-2.023.815-.919 1.193-1.93 1.193-3.246 0-1.41-.407-2.484-1.28-3.34-1.047-1.01-2.238-1.379-4.509-1.409l-2.096-.03c-.408 0-.64-.152-.64-.368 0-.428.554-.796 1.542-1.283.292.03.408.03.584.03 3.173 0 5.497-1.963 5.497-4.66 0-1.04-.291-1.836-.872-2.572.494.063.644.093 1.018.093 1.078 0 1.89-.339 2.736-1.164zM13.338 16.577c-4.228 1.035-7.096 3.058-7.096 5.382 0 1.44 1.101 2.762 2.941 3.804-.55-.886-.852-1.814-.852-2.773 0-2.42 1.874-4.645 5.01-6.416zm44.583 9.093c0-1.525-.942-2.941-2.54-4.102.143.464.226.942.226 1.426 0 4.37-6.105 8.107-14.756 9.66.978.109 1.993.172 3.037.172 7.75 0 14.033-3.204 14.033-7.153zm-4.987-2.378c0-1.601-1.373-3.087-3.71-4.314.547.663.845 1.37.845 2.106 0 3.873-8.253 7.013-18.433 7.013s-18.43-3.14-18.43-7.013c0-.494.136-.972.388-1.436-1.635 1.081-2.567 2.325-2.567 3.644 0 4.195 9.38 7.594 20.957 7.594 11.576 0 20.957-3.402 20.957-7.594zm-9.155-.189c-4.271 2.76-17.426 3.8-23.09.262C16.25 20.59 17.773 16.193 5.073 6.5 3.41 5.234 5.38 3.887 6.623 4.75c1.244.862.103 1.09 2.613 3.6 5.067 5.07 5.017.511 5.817 2.236 1.68 3.624 5.395 7.275 5.395 7.275 3.72 2.42 6.688 2.948 12.172-.763 3.479-2.354 2.056 3.744 10.585-.65 3.11-1.601 2.98-.54 6.144-4.947 1.314-1.83 3.824 1.406.979 1.853-1.138.18-3.061 1.426-3.887 3.393-1.164 2.908-.66 5.06-2.662 6.353zm-23.71-7.454c-1.054-.464-2.158-2.261-2.59-2.981 1.181-1.154.704-3.087.037-4.152-.666-1.06-1.472-.759-2.36-1.734-.886-.975.334-3.518 1.468-1.562 4.251 7.319 7.047 4.275 10.519 3.837 3.335-.418 6.28 1.4 7.185-3.747.15-.842.965-1.045 1.048.348.086 1.39.607 4.778 2.44 5.216s3.29-.431 3.721-.912c.428-.48.653-.41.842.783.19 1.194.654 2.842 3.227 1.008 5.265-3.757 3.757-5.21 5.803-6.174 1.167-.55 3 1.24.348 2.58-3.797 1.92-4.198 4.303-6.599 5.816-4.032 2.546-2.799.102-9.288-.823-2.497-.358-3.303 2.43-5.252 1.625-4.5-1.86-7.637-1.502-10.552.865zM34.137 2.087c.149 1.097.331 1.07.726 1.174.391.1.892-.518.909-1.118.016-.6-.256-.978-.85-.958-.59.023-.805.322-.785.902zm19.554 2c.47.46 1.734.149 2.026-.18.756-.845.783-1.356.391-1.923-.391-.564-1.213-.464-2.03.13-.811.59-.659 1.714-.39 1.976zm-.355 5.587c-.404.537-.418.918-.13 1.217.31.318.946.593 1.403.225.458-.361.458-.892.07-1.36-.391-.467-.922-.467-1.343-.086zM13.252 3.065c.62.19.889.766 1.413.11.258-.325.282-.753-.06-1.237-.216-.302-1.22-.511-1.645-.08-.424.431-.036 1.104.295 1.207zM.854 2.697c1.107.68 1.833 1.708 2.67.79.28-.306.63-.886.026-1.994C3.109.684 1.65.353 1.136.664.622.973-.005 2.17.854 2.697zM11.09 7.949c.352.365.952.335 1.31.14.358-.203.282-.756-.06-1.24-.215-.302-.852-.441-1.28-.01s-.215.855.03 1.11z"/></g></svg>