<svg xmlns="http://www.w3.org/2000/svg" width="62" height="61" fill="none"><clipPath id="a"><path d="M0 .755h62v59.96H0z"/></clipPath><g clip-path="url(#a)"><path fill="#40be46" d="m27.54 40.107-3.263.914c.298.83.515 2.32.515 4.295v9.789h3.645v-10.36c.68-.831 1.413-1.232 2.23-1.232.407 0 .706.086 1.061.286l1.005-3.377c-.57-.258-.816-.315-1.36-.315-.407 0-.896.085-1.197.229-.68.344-1.549 1.114-2.066 1.86-.053-.831-.246-1.488-.57-2.09zm-12.657-4.838h-.396v19.836h3.808v-8.788h4.811v-3.263h-4.81v-4.552h6.007l.233-1.732a64.102 64.102 0 0 1-9.653-1.502zm-8.92 22.468 1.767 2.062c1.712-.687 3.86-2.234 4.406-4.666.19-.8.27-1.317.27-3.893V35.314h-3.86V51.67c0 2.146-.081 2.947-.38 3.663-.354.802-1.225 1.776-2.203 2.404zm34.68-10.046c0 3.463-.68 4.95-2.257 4.95-.708 0-1.524-.399-1.849-1.2-.298-.745-.462-2.005-.462-3.693 0-1.46.135-2.489.38-3.262.299-.916 1.006-1.49 1.875-1.49.653 0 1.224.287 1.578.774.488.659.734 1.947.734 3.921zm2.23 5.696c1.196-1.431 1.74-3.15 1.74-5.668 0-2.377-.49-3.978-1.606-5.353-1.194-1.487-2.745-2.203-4.731-2.203-3.752 0-6.254 3.062-6.254 7.67 0 4.61 2.473 7.586 6.254 7.586 2.15 0 3.536-.774 4.596-2.032zm10.441-8.216c0 1.345-.79 2.09-2.23 2.09-1.278 0-2.15-.601-2.15-2.09 0-1.373.79-2.175 2.177-2.175s2.203.802 2.203 2.175zm6.444-3.12-1.522-2.432c-.842.802-1.878 1.26-2.882 1.26-.462 0-.707-.059-1.714-.314-1.006-.287-1.712-.373-2.502-.373-3.563 0-5.872 1.946-5.872 4.953 0 2.174.978 3.52 2.99 4.064-.815.2-1.714.628-2.12 1.115-.3.343-.436.801-.436 1.345 0 .458.108.86.272 1.203.19.316.462.573.79.714.652.26 1.713.432 3.343.458.843 0 1.361.029 1.55.029 1.007.057 1.523.23 1.903.431.38.227.653.743.653 1.316 0 .572-.352 1.145-.87 1.489-.489.342-1.278.485-2.31.485-1.688 0-2.61-.628-2.61-1.802 0-.516.054-.63.16-.946h-3.37c-.135.287-.327.688-.327 1.49 0 1.002.382 1.86 1.143 2.603 1.25 1.232 3.291 1.575 5.276 1.575 2.174 0 4.269-.515 5.492-1.89.761-.859 1.115-1.801 1.115-3.033 0-1.317-.381-2.319-1.197-3.119-.978-.945-2.093-1.289-4.214-1.317l-1.96-.029c-.38 0-.597-.143-.597-.343 0-.402.518-.745 1.442-1.2.272.028.38.028.544.028 2.964 0 5.139-1.833 5.139-4.354 0-.971-.272-1.716-.816-2.403.462.057.6.086.951.086 1.006 0 1.767-.315 2.557-1.088zm-45.836-24.01c-4.558 1.115-7.654 3.295-7.654 5.805 0 1.553 1.188 2.979 3.17 4.104-.595-.954-.92-1.956-.92-2.991 0-2.61 2.02-5.01 5.405-6.918zM62 27.845c0-1.645-1.014-3.17-2.739-4.422.155.501.244 1.014.244 1.536 0 4.713-6.583 8.745-15.913 10.416 1.054.119 2.15.184 3.275.184C55.226 35.56 62 32.106 62 27.846zm-5.377-2.563c0-1.728-1.481-3.33-4.003-4.651.59.715.912 1.478.912 2.27 0 4.177-8.9 7.565-19.878 7.565-10.977 0-19.877-3.388-19.877-7.565 0-.532.145-1.049.417-1.548-1.763 1.165-2.77 2.506-2.77 3.929 0 4.522 10.118 8.19 22.6 8.19 12.482 0 22.599-3.668 22.599-8.19zm-9.872-.203c-4.604 2.977-18.79 4.1-24.9.283-4.788-2.993-3.146-7.736-16.843-18.189-1.79-1.366.332-2.816 1.674-1.888 1.34.929.112 1.177 2.818 3.885 5.464 5.467 5.41.552 6.274 2.411 1.815 3.91 5.818 7.847 5.818 7.847 4.011 2.61 7.212 3.178 13.126-.823 3.752-2.538 2.217 4.036 11.416-.701 3.355-1.729 3.216-.583 6.626-5.335 1.415-1.974 4.122 1.516 1.053 2-1.227.194-3.299 1.537-4.19 3.658-1.255 3.136-.711 5.457-2.871 6.852zm-25.567-8.038c-1.137-.502-2.328-2.438-2.792-3.216 1.272-1.245.757-3.33.04-4.475-.719-1.144-1.59-.819-2.545-1.87-.955-1.052.36-3.793 1.585-1.685 4.587 7.891 7.598 4.608 11.345 4.138 3.596-.452 6.774 1.507 7.75-4.04.16-.908 1.042-1.125 1.132.376.092 1.5.654 5.153 2.63 5.626 1.978.47 3.547-.465 4.011-.982.463-.517.704-.444.908.842.203 1.29.704 3.067 3.48 1.087 5.679-4.052 4.052-5.62 6.26-6.66 1.257-.594 3.237 1.335.374 2.783-4.096 2.07-4.529 4.641-7.117 6.274-4.348 2.747-3.019.11-10.016-.886-2.694-.384-3.562 2.62-5.665 1.753-4.852-2.005-8.237-1.62-11.379.935zM36.35 2.413c.16 1.185.358 1.156.783 1.266.424.108.961-.558.98-1.205.019-.648-.276-1.055-.916-1.033-.638.025-.867.346-.847.972zM57.438 4.57c.509.497 1.869.162 2.186-.194.814-.912.843-1.462.423-2.074-.421-.61-1.309-.499-2.188.14-.878.635-.713 1.846-.422 2.129zm-.383 6.026c-.438.581-.45.992-.14 1.313.332.342 1.02.639 1.515.244.492-.39.492-.962.073-1.465-.421-.503-.994-.503-1.448-.092zM13.83 3.471c.667.204.96.824 1.522.117.278-.35.304-.812-.063-1.334-.233-.325-1.316-.55-1.776-.086-.46.465-.04 1.193.317 1.303zM.459 3.072c1.195.732 1.978 1.841 2.878.851.303-.33.681-.953.029-2.147C2.889.902 1.318.544.764.88.209 1.213-.468 2.504.459 3.073zM11.5 8.738c.38.395 1.027.362 1.414.15.384-.217.304-.814-.066-1.336-.231-.325-.92-.477-1.38-.012-.46.464-.234.922.032 1.198z"/></g></svg>