<svg xmlns="http://www.w3.org/2000/svg" width="171" height="31" fill="none"><g fill="#fff"><path fill-rule="evenodd" d="M27.011 6.575c.503.268.906.704 1.073 1.24l2.55 10.967a2.29 2.29 0 0 1-.403 1.61l-7.076 8.753c-.37.503-.94.77-1.543.704H10.344a2.442 2.442 0 0 1-1.543-.704l-7.076-8.753a2.116 2.116 0 0 1-.369-1.61L3.872 7.749a1.802 1.802 0 0 1 1.006-1.241l10.228-4.93c.268-.067.57-.067.838-.067s.57.034.839.168zm-.57 11.738c0 .033.034.033.067.033a.79.79 0 0 1 .604.704.73.73 0 0 1-.671.47c-.067 0-.1 0-.168-.034-.033-.033-.033-.033-.067-.033a.218.218 0 0 1-.09-.021.121.121 0 0 0-.044-.013c-.1-.025-.18-.068-.27-.116a3.63 3.63 0 0 0-.099-.051c-.067 0-.134-.034-.201-.067h-.034a5.637 5.637 0 0 0-1.073-.302h-.033a.38.38 0 0 0-.268.1s0 .034-.034.034l-.268-.034c-.604 1.912-1.912 3.521-3.622 4.561l.1.268s-.033 0-.033.034a.396.396 0 0 0-.034.335c.134.336.302.671.537.973v.067c.067.067.1.1.134.168.1.1.168.2.235.335.033.034.067.067.067.1 0 0 .033 0 .033.034a.863.863 0 0 1 .034.503.562.562 0 0 1-.302.37l-.06.02c-.07.025-.129.046-.208.046-.268 0-.503-.168-.637-.402-.034 0-.034-.034-.034-.034-.017-.017-.025-.033-.033-.05-.009-.017-.017-.034-.034-.05-.067-.101-.1-.235-.134-.37l-.067-.2v-.034c-.1-.369-.268-.704-.436-1.04a.522.522 0 0 0-.268-.2c0-.034 0-.034-.034-.034l-.134-.235c-.085.025-.173.053-.262.082-.261.082-.536.17-.811.22a6.715 6.715 0 0 1-1.811.234 7.894 7.894 0 0 1-2.918-.536l-.134.268c0 .017 0 .025-.004.03s-.013.004-.03.004c-.1.033-.2.1-.268.2-.167.336-.335.672-.436 1.04l-.067.202c-.017.067-.042.125-.067.184s-.05.117-.067.185c-.034.033-.067.067-.067.1-.034 0-.034.034-.034.034-.134.235-.368.402-.637.402a.622.622 0 0 1-.235-.067.69.69 0 0 1-.268-.905c.034 0 .034-.034.034-.034.017-.017.025-.034.033-.05.009-.017.017-.034.034-.05.044-.06.082-.118.116-.171.043-.068.08-.127.119-.165.067-.067.1-.1.134-.168v-.033c.201-.302.402-.637.536-.973a.396.396 0 0 0-.033-.335s-.034 0-.034-.034l.168-.234c-.335-.168-.604-.37-.906-.604a8.095 8.095 0 0 1-2.75-3.924l-.301.034s0-.034-.034-.034a.38.38 0 0 0-.268-.1H7.56a5.976 5.976 0 0 0-1.106.302H6.42a.477.477 0 0 0-.201.067c-.038.012-.08.03-.125.048-.076.03-.16.065-.244.086-.01 0-.026-.003-.044-.007-.041-.007-.09-.017-.09.007 0 .033 0 .033-.034.033-.067.034-.1.034-.167.034a.623.623 0 0 1-.671-.47.655.655 0 0 1 .537-.771c.019-.02.027-.027.037-.03.007-.003.015-.003.03-.003.039 0 .067-.012.09-.021a.12.12 0 0 1 .044-.013c.067 0 .134-.008.2-.017.068-.008.135-.017.202-.017.067-.033.134-.033.201-.033.403-.034.772-.1 1.14-.201.101-.067.202-.134.235-.235 0 0 .034 0 .034-.034l.268-.067c-.302-1.911.134-3.856 1.174-5.5a.737.737 0 0 1 .05-.083c.017-.026.034-.05.05-.084l-.194-.195c.015-.096-.046-.214-.107-.275-.269-.268-.604-.47-.94-.67l-.2-.101a3.638 3.638 0 0 1-.37-.201c-.033 0-.1-.067-.1-.067s0-.034-.034-.034a.721.721 0 0 1-.134-.939c.1-.168.269-.235.47-.235.167 0 .335.067.47.168l.033.034a.175.175 0 0 0 .05.033c.017.008.034.017.05.034.05.05.093.1.135.15.042.05.083.101.134.151.01.01.023.02.038.032a.308.308 0 0 1 .096.103c.235.268.536.536.838.77a.476.476 0 0 0 .201.068c.04 0 .068-.011.09-.021a.12.12 0 0 1 .045-.013h.033l.201.135c1.107-1.174 2.55-2.013 4.125-2.348l.173-.029c.336-.057.652-.11.967-.139l.034-.268v-.067c.1-.067.134-.168.168-.268 0-.403 0-.772-.067-1.14v-.034c0-.067 0-.134-.034-.201-.033-.134-.067-.268-.067-.403v-.167c0-.168.067-.336.201-.47.168-.167.37-.268.57-.235a.664.664 0 0 1 .57.705v.2a1.676 1.676 0 0 0-.033.202 1.656 1.656 0 0 1-.034.201c0 .034-.008.067-.016.101-.009.033-.017.067-.017.1v.034c-.067.403-.067.771-.067 1.14.033.1.067.202.167.269v-.034l.034.268c1.576.168 3.119.772 4.36 1.744.134.134.276.268.419.403.142.134.285.268.42.402l.267-.168h.034c.033.034.1.034.134.034a.477.477 0 0 0 .201-.067c.302-.201.604-.47.839-.738.01-.01.023-.02.037-.031.034-.026.073-.056.097-.103.067-.1.167-.201.268-.302.034 0 .067-.033.1-.067l.034-.034a.802.802 0 0 1 .47-.167c.167 0 .369.1.47.235.234.301.167.704-.135.939 0 .012.005.02.01.027.006.011.01.019-.01.04-.017.016-.033.025-.05.033s-.034.017-.05.034c-.068.033-.126.067-.185.1a3.576 3.576 0 0 1-.184.1l-.202.101a6.008 6.008 0 0 0-.939.671c-.067.067-.1.201-.1.302v.034l-.202.2a9.086 9.086 0 0 1 1.174 2.75c.201.973.269 1.98.134 2.952l.269.067c.033.1.134.201.234.235.37.1.772.167 1.14.201h.034a.426.426 0 0 0 .201.033c.135 0 .269 0 .403.034.067 0 .134 0 .134.034zm-17.5-6.567-.006-.007v.034a.17.17 0 0 0 .007-.027zm6.97 5.997.905-.436.235-.973-.637-.805h-1.006l-.638.805.235.973zm6.506-.504a6.419 6.419 0 0 0-.134-2.112 6.824 6.824 0 0 0-.805-1.979l-2.516 2.28a.54.54 0 0 0-.134.235c-.067.302.101.604.403.671zm-4.695-3.387 2.75-1.945a6.31 6.31 0 0 0-3.79-1.81l.201 3.386c0 .101.034.168.1.235.169.235.504.268.739.134zm-2.65-3.79-.67.135a6.66 6.66 0 0 0-3.12 1.71l2.784 1.979.06.02c.07.026.129.047.209.047.301 0 .57-.235.57-.537zm-2.28 5.3-2.482-2.214a7.06 7.06 0 0 0-.972 4.091l3.253-.939c.134-.033.2-.067.268-.167a.539.539 0 0 0-.067-.772zm.268 2.883-3.32.57a6.598 6.598 0 0 0 2.582 3.287l1.275-3.085a.396.396 0 0 0 .033-.335c-.033-.269-.302-.436-.57-.436zm2.85 4.897c.504 0 .973-.067 1.443-.168.235-.067.436-.1.637-.134l-1.61-2.918c-.1-.1-.167-.167-.268-.235a.52.52 0 0 0-.67.135l-1.644 2.984c.67.202 1.408.336 2.113.336zm3.522-1.073a6.404 6.404 0 0 0 2.012-2.013c.268-.369.47-.804.637-1.274l-3.353-.57c-.1 0-.201.034-.302.067a.545.545 0 0 0-.302.637z" clip-rule="evenodd"/><path d="M163.804 22.47c.469.035.972-.033 1.408-.2a.747.747 0 0 0 .403-.738c-.034-.335-.235-.637-.537-.738a7.242 7.242 0 0 0-1.643-.738 13.364 13.364 0 0 1-1.543-.67 4.553 4.553 0 0 1-1.173-.805 3.166 3.166 0 0 1-.738-1.14c-.202-.503-.269-1.04-.269-1.577a3.482 3.482 0 0 1 1.342-2.85c.905-.704 2.113-1.04 3.655-1.04.738 0 1.509.067 2.247.235.57.1 1.14.235 1.711.436l-.638 2.85c-.469-.167-.905-.268-1.375-.402-.536-.134-1.106-.168-1.643-.168-1.14 0-1.71.302-1.71.94 0 .133.033.268.067.402.067.134.168.235.302.335s.335.201.57.335c.235.135.57.269.972.403.671.235 1.342.536 1.945.872.47.235.872.537 1.208.939.301.302.503.67.637 1.107.134.47.201.939.201 1.408a3.217 3.217 0 0 1-1.442 2.884c-.939.637-2.28.973-4.024.973a10.187 10.187 0 0 1-2.851-.302 20.795 20.795 0 0 1-1.542-.47l.603-2.95a12.14 12.14 0 0 0 1.878.57c.671.033 1.308.1 1.979.1zm-18.478-3.688c-.034-1.006.167-2.012.503-2.951.301-.805.771-1.51 1.375-2.146.57-.57 1.207-1.007 1.945-1.275a5.988 5.988 0 0 1 2.28-.436c1.811 0 3.253.57 4.293 1.677 1.039 1.107 1.576 2.75 1.576 4.896 0 .201 0 .436-.034.704 0 .269-.033.47-.033.671h-8.183a2.41 2.41 0 0 0 1.04 1.778c.737.47 1.609.704 2.481.67.637 0 1.308-.067 1.945-.167a6.64 6.64 0 0 0 1.577-.503l.503 2.95c-.235.135-.503.202-.772.303-.369.1-.738.2-1.106.234-.403.067-.805.134-1.275.202a17.99 17.99 0 0 1-1.375.067 7.727 7.727 0 0 1-3.018-.503 5.91 5.91 0 0 1-2.113-1.375c-.57-.604-.972-1.342-1.241-2.113-.234-.906-.368-1.811-.368-2.683zm8.484-1.375c0-.302-.067-.604-.168-.905-.067-.302-.234-.537-.402-.772a2.297 2.297 0 0 0-.704-.57c-.336-.168-.671-.235-1.04-.235s-.704.067-1.039.235c-.269.134-.537.302-.738.537a2.43 2.43 0 0 0-.47.805c-.1.301-.167.603-.201.905zM135.5 9.09l3.621-.57v3.756h4.36v3.018h-4.36v4.494a3.354 3.354 0 0 0 .403 1.811c.268.436.805.67 1.643.67.403 0 .805-.033 1.174-.1a6.345 6.345 0 0 0 1.14-.302l.503 2.817c-.469.201-.972.336-1.475.47a9.67 9.67 0 0 1-1.979.201 6.066 6.066 0 0 1-2.448-.402 3.961 3.961 0 0 1-1.543-1.107c-.402-.503-.671-1.107-.838-1.744a8.468 8.468 0 0 1-.201-2.247zm-14.656 9.692c-.033-1.006.168-2.012.503-2.951.302-.805.772-1.51 1.375-2.146.57-.57 1.208-1.007 1.945-1.275a5.997 5.997 0 0 1 2.281-.436c1.811 0 3.253.57 4.292 1.677 1.04 1.107 1.577 2.75 1.577 4.896 0 .201 0 .436-.034.704-.033.269-.033.47-.033.671h-8.217a2.41 2.41 0 0 0 1.04 1.778 4.33 4.33 0 0 0 2.482.67c.637 0 1.307-.067 1.945-.167a7.423 7.423 0 0 0 1.609-.503l.503 2.95c-.234.135-.503.202-.771.303-.369.1-.738.2-1.107.234-.402.067-.804.134-1.274.202a17.99 17.99 0 0 1-1.375.067 7.72 7.72 0 0 1-3.018-.503 5.91 5.91 0 0 1-2.113-1.375c-.57-.604-.972-1.342-1.241-2.113-.268-.906-.402-1.811-.369-2.683zm8.485-1.375c0-.302-.067-.604-.168-.905-.067-.302-.234-.537-.402-.772a2.297 2.297 0 0 0-.704-.57c-.336-.168-.671-.235-1.04-.235s-.704.067-1.04.235a2.188 2.188 0 0 0-.704.537 2.411 2.411 0 0 0-.469.805 4.398 4.398 0 0 0-.202.905zm-22.234-4.695a27.174 27.174 0 0 1 2.381-.503 18.698 18.698 0 0 1 3.051-.235c.906-.033 1.811.134 2.683.436a3.83 3.83 0 0 1 1.711 1.174c.436.537.737 1.174.905 1.844.201.772.268 1.577.268 2.381v7.21h-3.588v-6.74c0-1.174-.168-1.979-.469-2.482-.302-.47-.872-.738-1.711-.738-.268 0-.536 0-.838.034-.302 0-.537.034-.771.067v9.86h-3.622zm-2.549 2.784c-.335-.068-.704-.168-1.14-.235-.47-.1-.939-.134-1.409-.134-.268 0-.536.033-.838.067-.235.033-.47.067-.704.134v9.759h-3.622v-12.14c.738-.268 1.509-.47 2.28-.637a11.037 11.037 0 0 1 2.951-.302c.235 0 .47.033.705.033.268 0 .536.034.838.1.268.034.537.068.838.135.235.034.47.1.705.201zm-22.503 3.286c-.033-1.006.168-2.012.503-2.951.302-.805.772-1.51 1.375-2.146.57-.57 1.208-1.007 1.945-1.275a5.992 5.992 0 0 1 2.28-.436c1.812 0 3.254.57 4.293 1.677s1.577 2.75 1.577 4.863c0 .2 0 .436-.034.704-.033.268-.033.47-.033.67h-8.217a2.412 2.412 0 0 0 1.04 1.778c.738.47 1.61.704 2.482.67.637 0 1.307-.066 1.945-.167a8.527 8.527 0 0 0 1.576-.47l.503 2.952c-.235.134-.503.201-.771.302-.37.1-.738.2-1.107.234-.403.067-.805.134-1.274.202-.436.033-.906.067-1.375.067a7.725 7.725 0 0 1-3.019-.503 5.906 5.906 0 0 1-2.112-1.375c-.57-.604-.973-1.342-1.241-2.113-.201-.906-.336-1.777-.336-2.683zm8.518-1.375c0-.302-.067-.604-.167-.905-.067-.302-.235-.537-.403-.772a2.298 2.298 0 0 0-.704-.57c-.335-.168-.67-.235-1.04-.235s-.704.067-1.04.235c-.267.134-.536.302-.737.537a2.42 2.42 0 0 0-.47.805c-.1.301-.167.603-.2.905zm-14.386 1.174c0-2.348-.872-3.488-2.583-3.488-.369 0-.737.034-1.106.134a2.845 2.845 0 0 0-.872.37v6.572c.167.034.402.067.67.1.269.034.57.034.906.034a2.56 2.56 0 0 0 2.247-1.006 4.806 4.806 0 0 0 .738-2.716zm3.689.134c0 .939-.135 1.878-.47 2.783a5.668 5.668 0 0 1-1.274 2.113 6.08 6.08 0 0 1-2.08 1.375c-.905.335-1.844.47-2.817.47-.435 0-.905-.034-1.374-.067-.47-.034-.94-.101-1.409-.135-.436-.067-.872-.134-1.308-.234a4.38 4.38 0 0 1-1.107-.302V6.776l3.622-.57v6.372a8.048 8.048 0 0 1 1.275-.403c.47-.1.939-.134 1.408-.134.839 0 1.643.134 2.415.503.67.302 1.274.772 1.744 1.342a5.738 5.738 0 0 1 1.073 2.113c.201.838.302 1.777.302 2.716zM64.57 24.617c-.771.201-1.576.37-2.38.47a18.708 18.708 0 0 1-3.053.235c-.939.033-1.844-.135-2.716-.436a4.42 4.42 0 0 1-1.71-1.208 5.029 5.029 0 0 1-.906-1.911c-.201-.772-.268-1.61-.268-2.415v-7.076h3.622v6.674c0 1.173.167 2.012.47 2.515.301.503.871.771 1.71.771.268 0 .536 0 .838-.033.302-.034.537-.034.771-.101v-9.826h3.622zm-21.127-7.713c.368-.402.704-.805 1.106-1.207a41.2 41.2 0 0 1 1.107-1.241c.369-.436.704-.805 1.006-1.174s.604-.704.839-.972h4.292c-.872.972-1.71 1.945-2.515 2.85-.839.906-1.71 1.845-2.683 2.784.537.503 1.04 1.006 1.51 1.576a45.942 45.942 0 0 1 1.508 1.878c.47.637.94 1.308 1.342 1.945.402.637.738 1.24 1.006 1.777h-4.159c-.268-.436-.57-.872-.905-1.375-.335-.503-.704-1.006-1.04-1.542a16.564 16.564 0 0 0-1.207-1.476 7.97 7.97 0 0 0-1.207-1.174v5.6h-3.622V6.777l3.622-.57z"/></g></svg>