<svg xmlns="http://www.w3.org/2000/svg" width="146" height="37" fill="none"><g fill="#fff"><path d="M11.6 4.252C10.183 2.58 8.964.871 8.715.524a.057.057 0 0 0-.092 0 58.786 58.786 0 0 1-2.881 3.732c-12.141 15.46 1.913 25.893 1.913 25.893l.114.08c.108 1.614.372 3.93.372 3.93h1.057s.262-2.311.37-3.93l.116-.09S23.739 19.716 11.6 4.252zM8.67 29.92s-.63-.537-.8-.807v-.028l.762-16.837a.04.04 0 0 1 .047-.032c.017.002.03.015.033.032l.765 16.84v.028c-.17.262-.8.807-.8.807M34.917 26.476 29.08 12.259l-.017-.04h-4.55v.951h.73c.458 0 .829.371.829.83v.008l-.13 14.32a.828.828 0 0 1-.813.822l-.748.008v.947h4.43v-.946l-.456-.009a.836.836 0 0 1-.814-.83V14.83l6.366 15.266a.588.588 0 0 0 1.085 0l6.22-14.93.087 13.152a.832.832 0 0 1-.82.836h-.468v.947h5.184v-.947h-.71a.834.834 0 0 1-.82-.826l-.042-14.316c0-.454.363-.823.818-.833l.757-.006v-.955h-4.423zM75.72 28.931a.769.769 0 0 1-.22-.575v-7.01c0-1.332-.394-2.385-1.18-3.13-.785-.745-1.847-1.12-3.178-1.12-1.878 0-3.352.759-4.384 2.256a.083.083 0 0 1-.085.035.082.082 0 0 1-.069-.063l-.484-1.874h-.81l-2.088 1.195v.654h.538a.873.873 0 0 1 .604.2.77.77 0 0 1 .218.598v8.263a.761.761 0 0 1-.722.798h-.598v.952h4.799v-.952h-.524a.761.761 0 0 1-.798-.723V22.888a5.089 5.089 0 0 1 .459-2.066 4.094 4.094 0 0 1 1.342-1.661 3.477 3.477 0 0 1 2.095-.647c.917 0 1.607.289 2.04.861s.655 1.324.655 2.219v6.763a.761.761 0 0 1-.722.797h-.598v.952h4.799v-.952h-.524a.765.765 0 0 1-.575-.223M119.687 13.291a9.37 9.37 0 0 0-4.444-1.073h-6.286v.953h.609c.508.036.912.44.949.949v14.085a.92.92 0 0 1-.299.655.899.899 0 0 1-.654.298h-.609v.952h6.286a9.377 9.377 0 0 0 4.445-1.072 8.094 8.094 0 0 0 3.208-3.095c.786-1.34 1.189-2.947 1.189-4.777 0-1.831-.393-3.437-1.189-4.776a8.113 8.113 0 0 0-3.208-3.095m1.881 7.87c0 1.673-.299 3.097-.893 4.232-.593 1.135-1.38 1.987-2.345 2.537a6.385 6.385 0 0 1-3.189.827h-1.269a.901.901 0 0 1-.655-.297.92.92 0 0 1-.299-.655V14.516c.038-.509.442-.912.95-.949h1.269a6.386 6.386 0 0 1 3.189.828c.965.55 1.753 1.403 2.345 2.535s.893 2.56.893 4.232M138.903 22.108c-.571-.662-1.685-1.227-3.003-1.528 1.812-.9 2.732-2.179 2.732-3.807a4.107 4.107 0 0 0-.709-2.37 4.711 4.711 0 0 0-1.993-1.608 7.224 7.224 0 0 0-2.97-.577h-7.059v.952h.559c.508.037.913.442.95.95v14.085a.91.91 0 0 1-.299.655.894.894 0 0 1-.655.298h-.609v.952h7.661a8.669 8.669 0 0 0 3.234-.588 5.348 5.348 0 0 0 2.336-1.734c.572-.76.863-1.69.863-2.766a4.318 4.318 0 0 0-1.048-2.91m-8.774 6.352a.915.915 0 0 1-.298-.655v-6.332h3.638c1.278 0 2.27.332 2.947.984.678.652 1.019 1.515 1.019 2.552 0 .63-.154 1.25-.449 1.809a3.521 3.521 0 0 1-1.345 1.395c-.596.354-1.326.535-2.174.535h-2.688a.9.9 0 0 1-.655-.297m-.284-8.323v-5.617c.038-.508.441-.911.949-.948h1.73c1.243 0 2.166.31 2.742.917.577.608.87 1.405.87 2.365 0 .96-.271 1.797-.807 2.391-.535.595-1.35.891-2.425.891h-3.059zM57.45 17.922a7.171 7.171 0 0 0-6.709 0c-1 .55-1.829 1.366-2.396 2.357a7.353 7.353 0 0 0 0 6.99 6.205 6.205 0 0 0 2.397 2.358 7.18 7.18 0 0 0 6.709 0 6.173 6.173 0 0 0 2.398-2.357 7.353 7.353 0 0 0 0-6.99 6.209 6.209 0 0 0-2.398-2.358zm.97 5.854c0 1.616-.393 2.916-1.179 3.864s-1.833 1.423-3.143 1.423-2.368-.48-3.143-1.423c-.775-.943-1.179-2.247-1.179-3.864s.393-2.918 1.179-3.866 1.833-1.421 3.143-1.421 2.368.478 3.143 1.42c.775.944 1.179 2.25 1.179 3.867zM103.671 17.922a7.174 7.174 0 0 0-6.71 0c-1 .55-1.83 1.366-2.397 2.357a7.352 7.352 0 0 0 0 6.99 6.204 6.204 0 0 0 2.397 2.358 7.182 7.182 0 0 0 6.71 0 6.195 6.195 0 0 0 2.397-2.357 7.356 7.356 0 0 0 0-6.99 6.202 6.202 0 0 0-2.397-2.358zm.968 5.854c0 1.616-.393 2.916-1.179 3.864-.785.948-1.833 1.423-3.143 1.423-1.31 0-2.367-.48-3.143-1.423-.775-.943-1.178-2.247-1.178-3.864s.392-2.918 1.178-3.866c.786-.948 1.834-1.421 3.143-1.421 1.31 0 2.368.478 3.143 1.42.776.944 1.179 2.25 1.179 3.867zM85.015 17.089a6.178 6.178 0 0 0-2.864.666 5.186 5.186 0 0 0-2.03 1.815 4.602 4.602 0 0 0-.735 2.515 4.43 4.43 0 0 0 .562 2.226c.37.646.88 1.2 1.494 1.619l-1.867 2.538a1.034 1.034 0 0 0 .833 1.645h.535a4.04 4.04 0 0 0-1.23 1.265 3.366 3.366 0 0 0-.511 1.761c0 1.124.497 2.051 1.477 2.75s2.335 1.048 4.045 1.048a9.86 9.86 0 0 0 3.372-.57 6.02 6.02 0 0 0 2.532-1.68c.635-.73.977-1.668.961-2.636 0-1.071-.393-1.833-1.31-2.564-.785-.62-2.015-.948-3.548-.948h-5.239a.035.035 0 0 1-.03-.017.032.032 0 0 1 0-.034l1.36-1.834c.322.15.66.262 1.006.338.346.066.697.097 1.048.094a6.429 6.429 0 0 0 2.957-.666 5.253 5.253 0 0 0 2.055-1.815 4.53 4.53 0 0 0 .75-2.515c0-.971-.467-2.74-1.753-3.643 0-.005.005-.01.01-.008h.002l2.823.31v-1.29h-4.506a6.648 6.648 0 0 0-2.199-.37zm1.571 8.194a3.31 3.31 0 0 1-1.571.4 3.26 3.26 0 0 1-2.302-.932c-.655-.617-.981-1.514-.981-2.667 0-1.154.33-2.052.98-2.67a3.258 3.258 0 0 1 2.303-.93 3.31 3.31 0 0 1 1.571.4c.513.28.938.697 1.229 1.202.317.534.478 1.205.478 1.998s-.161 1.464-.478 1.996a3.16 3.16 0 0 1-1.229 1.202m-3.556 4.823h3.55c.987 0 1.613.191 2.035.62.422.44.647 1.033.626 1.642a2.835 2.835 0 0 1-1.129 2.337c-.758.595-1.782.896-3.045.896-1.105 0-2.011-.244-2.69-.726-.68-.481-1.014-1.186-1.014-2.108a2.786 2.786 0 0 1 .476-1.585 3.065 3.065 0 0 1 1.196-1.072M142.616 29.948a1.61 1.61 0 0 1-.607-.613 1.72 1.72 0 0 1 0-1.688c.144-.254.356-.465.611-.608a1.837 1.837 0 0 1 1.758 0c.255.143.467.354.613.608a1.73 1.73 0 0 1 0 1.688 1.633 1.633 0 0 1-.613.608 1.844 1.844 0 0 1-1.758 0m1.608-.194c.214-.122.389-.3.508-.515a1.583 1.583 0 0 0 0-1.486 1.317 1.317 0 0 0-.508-.516 1.526 1.526 0 0 0-1.459 0c-.213.121-.388.3-.508.516a1.595 1.595 0 0 0 0 1.486c.12.215.295.393.508.515.455.25 1.005.25 1.459 0zm-1.44-.457v-.116l.023-.018h.079c.025 0 .05-.012.067-.03a.094.094 0 0 0 .029-.067v-1.215a.09.09 0 0 0-.029-.066.093.093 0 0 0-.067-.03h-.079l-.023-.018v-.115l.023-.019h.681a.747.747 0 0 1 .46.131.433.433 0 0 1 .17.368.439.439 0 0 1-.131.32.552.552 0 0 1-.334.163l.158.046.303.48c.017.032.05.053.087.055h.078l.019.018v.115l-.019.019h-.4l-.028-.019-.423-.704h-.101v.483c0 .026.011.05.03.067.017.018.042.03.067.03h.077l.024.018v.115l-.024.019h-.694zm.655-.857a.326.326 0 0 0 .247-.088.34.34 0 0 0 .088-.252.368.368 0 0 0-.083-.25.28.28 0 0 0-.221-.095h-.05a.104.104 0 0 0-.097.096v.59z"/></g></svg>