<svg xmlns="http://www.w3.org/2000/svg" width="116" height="25" fill="none"><path fill="#fff" d="M21.639 24.753a2.521 2.521 0 0 1-1.78-.735L5.017 9.175v13.012a2.515 2.515 0 0 1-2.509 2.508C1.125 24.696 0 23.635 0 22.188V3.131C0 2.115.614 1.203 1.55.813a2.505 2.505 0 0 1 2.732.545L19.125 16.2V3.13A2.515 2.515 0 0 1 21.633.623a2.51 2.51 0 0 1 2.508 2.508v19.056a2.515 2.515 0 0 1-2.508 2.509M33.244.589l-.688 1.285-5.338 9.689-.689 1.223.689 1.222 5.338 9.373.717 1.286h13.948l.688-1.412 3.984-8.024 1.78-3.64H49.63l-10.188.03c-1.32-.018-2.542 1.182-2.542 2.508s1.216 2.525 2.542 2.508l6.142-.029-1.504 3.042h-7.886l-3.92-6.899 3.948-7.146h8.403l1.952 4.018h5.05l-3.18-7.622L47.76.589zM58.643.56c-1.32.017-2.491 1.228-2.468 2.537V9.64h5.016V3.097C61.208 1.765 60.043.543 58.654.56m8.036 24.193a2.515 2.515 0 0 1-2.508-2.508V3.172A2.515 2.515 0 0 1 66.69.663a2.51 2.51 0 0 1 2.508 2.509V16.24L84.041 1.398a2.509 2.509 0 0 1 4.282 1.774v19.13a2.515 2.515 0 0 1-2.508 2.508 2.51 2.51 0 0 1-2.509-2.508V9.227L68.463 24.07a2.51 2.51 0 0 1-1.779.735m40.207-12.088 7.806-7.772a2.521 2.521 0 0 0 .005-3.547c-.97-.981-2.565-.976-3.547-.006l-7.806 7.789-7.806-7.789a2.51 2.51 0 0 0-3.547.006 2.51 2.51 0 0 0 .006 3.547l7.806 7.772-7.8 7.748a2.52 2.52 0 0 0-.006 3.548c.47.476 1.108.746 1.722.746.614 0 1.28-.241 1.768-.735l7.788-7.766 7.789 7.766c.471.47 1.108.735 1.768.735s1.286-.247 1.722-.746a2.51 2.51 0 0 0-.006-3.548l-7.777-7.748M58.528 24.736c-1.32-.017-2.491-1.229-2.468-2.537V11.695h5.016v10.492c.017 1.332-1.148 2.554-2.537 2.537"/></svg>