<svg xmlns="http://www.w3.org/2000/svg" width="118" height="41" fill="none"><clipPath id="a"><path d="M.124.5h117v40h-117z"/></clipPath><mask id="b" width="47" height="41" x="0" y="0" maskUnits="userSpaceOnUse"><path fill="#fff" d="M46.592.504H.127v39.965h46.465z"/></mask><g clip-path="url(#a)"><g mask="url(#b)"><path fill="#fff" d="M44.764 31.314c-2.475 1.3-15.32 6.603-18.088 8.058-2.767 1.456-4.25 1.415-6.413.376-2.165-1.038-15.788-6.599-18.257-7.784C.762 31.378.127 30.878.127 30.41v-4.717s17.797-3.876 20.669-4.92c2.872-1.045 3.865-1.07 6.305-.173 2.44.898 17.07 3.548 19.485 4.427v4.65c0 .484-.555.956-1.821 1.634z"/><path fill="#505968" d="M44.764 26.62c-2.475 1.293-15.321 6.596-18.088 8.026-2.767 1.43-4.25 1.417-6.414.382s-15.787-6.596-18.256-7.77c-2.47-1.176-2.517-1.998-.095-2.947 2.42-.95 16.013-6.29 18.885-7.341 2.872-1.051 3.865-1.074 6.305-.172 2.44.901 15.232 6 17.635 6.889 2.402.888 2.513 1.618.028 2.908z"/><path fill="#fff" d="M44.764 23.633c-2.475 1.296-15.32 6.596-18.088 8.026-2.767 1.43-4.236 1.417-6.4.375-2.165-1.041-15.801-6.57-18.27-7.752C.762 23.69.127 23.193.127 22.722V18.02s17.797-3.89 20.669-4.934c2.872-1.045 3.865-1.073 6.305-.162 2.44.91 17.07 3.535 19.485 4.42v4.65c0 .484-.555.969-1.821 1.637z"/><path fill="#505968" d="M44.764 18.916c-2.475 1.299-15.32 6.599-18.088 8.029-2.767 1.43-4.25 1.42-6.413.382-2.165-1.038-15.788-6.577-18.257-7.762-2.469-1.185-2.513-1.99-.095-2.94 2.418-.949 16.013-6.303 18.885-7.325 2.872-1.022 3.865-1.086 6.305-.197 2.44.888 15.233 6.032 17.635 6.895 2.402.863 2.513 1.621.029 2.908z"/><path fill="#fff" d="M44.764 15.66c-2.475 1.3-15.32 6.603-18.088 8.03-2.767 1.427-4.236 1.417-6.4.382-2.165-1.035-15.801-6.58-18.27-7.762C.762 15.724.127 15.224.127 14.753v-4.717S17.924 6.16 20.796 5.118c2.872-1.041 3.865-1.073 6.305-.175 2.44.898 17.064 3.548 19.479 4.434v4.65c.006.49-.55.968-1.815 1.633z"/><path fill="#505968" d="M44.764 10.95c-2.475 1.274-15.321 6.609-18.088 8.026s-4.25 1.414-6.414.382-15.787-6.583-18.256-7.762C-.464 10.418-.511 9.6 1.91 8.65c2.42-.949 16.013-6.3 18.885-7.338C23.668.274 24.66.242 27.1 1.14c2.44.898 15.232 6.004 17.635 6.89 2.402.885 2.513 1.62.028 2.91z"/></g><path fill="#fff" d="m24.087 4.252 3.065-1.01-.831 1.994 3.12 1.172-4.021.42-.905 2.179-1.453-2.43-4.65-.42 3.472-1.255-1.044-1.93zM24.28 16.97l-7.514-3.131 10.764-1.66zM13.862 7.618c3.173 0 5.753 1.004 5.753 2.23s-2.586 2.23-5.753 2.23c-3.167 0-5.757-1.004-5.757-2.23s2.58-2.23 5.757-2.23zM34.204 7.004l6.369 2.525-6.363 2.526z"/><path fill="#8993a5" d="m34.204 7.004.006 5.051-.692.27L27.152 9.8z"/><g fill="#fff"><path d="M61.374 13.689a5.509 5.509 0 0 1 1.977-1.382 6.328 6.328 0 0 1 2.317-.513 2.123 2.123 0 0 1 1.587.513 1.593 1.593 0 0 1 .482 1.207c.003.45-.17.884-.482 1.207a1.555 1.555 0 0 1-1.203.52c-1.98.174-4.729 2.155-4.729 4.847v6.108a1.777 1.777 0 0 1-.518 1.206c-.32.32-.75.505-1.202.517a1.557 1.557 0 0 1-1.228-.531 1.71 1.71 0 0 1-.514-1.208V13.44a1.71 1.71 0 0 1 .514-1.206 2.28 2.28 0 0 1 1.292-.434c.452.01.883.193 1.203.514.32.32.504.753.514 1.206zM82.226 19.295c.002.416-.15.818-.428 1.127-.33.307-.754.49-1.203.516H70.44c.096.81.489 1.554 1.102 2.09a4.582 4.582 0 0 0 3.008 1.455 4.448 4.448 0 0 0 3.351-.777 1.75 1.75 0 0 1 1.292-.52 1.47 1.47 0 0 1 1.114.434 1.404 1.404 0 0 1 .367 1.519c-.063.173-.16.332-.285.468-.025.029-.054.054-.083.083a7.767 7.767 0 0 1-5.582 2.07 7.278 7.278 0 0 1-5.575-2.414 8.511 8.511 0 0 1-2.317-5.701 7.77 7.77 0 0 1 2.317-5.695 7.17 7.17 0 0 1 5.414-2.328 6.96 6.96 0 0 1 5.312 2.16 7.906 7.906 0 0 1 2.415 5.331v.169zm-7.648-4.57a4.497 4.497 0 0 0-2.897 1.124 4.197 4.197 0 0 0-1.374 2.229h9.022a3.946 3.946 0 0 0-1.548-2.153 5.479 5.479 0 0 0-3.174-1.214M98.395 26.021a1.777 1.777 0 0 1-.516 1.206c-.32.321-.75.508-1.2.52a1.853 1.853 0 0 1-1.72-1.382 7.354 7.354 0 0 1-4.39 1.382 7.455 7.455 0 0 1-5.5-2.328 7.692 7.692 0 0 1-2.237-5.694 8.217 8.217 0 0 1 2.238-5.692 7.567 7.567 0 0 1 5.5-2.424 7.072 7.072 0 0 1 4.293 1.382V6.962a1.572 1.572 0 0 1 .517-1.207 1.705 1.705 0 0 1 1.219-.519 1.556 1.556 0 0 1 1.202.52 1.708 1.708 0 0 1 .518 1.206v19.06zm-7.727-1.726a3.797 3.797 0 0 0 3.005-1.376 4.595 4.595 0 0 0 0-6.37 4.127 4.127 0 0 0-3.005-1.395 3.686 3.686 0 0 0-3.009 1.382 4.595 4.595 0 0 0 0 6.37 3.964 3.964 0 0 0 3.009 1.376M103.476 6.962v.695a1.755 1.755 0 0 1-.53 1.312 1.472 1.472 0 0 1-1.203.43 1.535 1.535 0 0 1-1.199-.513 1.729 1.729 0 0 1-.518-1.293v-.637a1.684 1.684 0 0 1 .518-1.207 1.68 1.68 0 0 1 1.199-.52 1.581 1.581 0 0 1 1.203.526 1.562 1.562 0 0 1 .527 1.207m-2.898 5.265a1.677 1.677 0 0 1 1.203-.52 1.535 1.535 0 0 1 1.203.52 1.739 1.739 0 0 1 .492 1.274v12.616a1.46 1.46 0 0 1-.527 1.207 1.695 1.695 0 0 1-1.2.519 1.549 1.549 0 0 1-1.202-.52 1.684 1.684 0 0 1-.518-1.207V13.515a1.722 1.722 0 0 1 .518-1.274M115.664 13.434c.353.244.599.613.689 1.032.069.439.01.888-.171 1.293-.247.35-.614.596-1.032.688a1.774 1.774 0 0 1-1.291-.258c-1.203-.774-2.142-1.204-2.92-1.204a2.768 2.768 0 0 0-1.904.599c-.342.261-.514.433-.514.605a.639.639 0 0 0 .086.433c.098.106.214.194.343.258.7.442 1.497.708 2.322.774 1.069.177 2.109.498 3.091.956a4.31 4.31 0 0 1 2.063 1.815 4.303 4.303 0 0 1-.08 4.783c-.322.464-.733.86-1.208 1.164a6.898 6.898 0 0 1-4.126 1.292c-1.977 0-3.865-.773-5.671-2.229a1.844 1.844 0 0 1-.603-1.124 1.655 1.655 0 0 1 1.784-1.803c.322.028.629.15.882.35a4.983 4.983 0 0 0 3.523 1.38 3.675 3.675 0 0 0 2.148-.606c.343-.344.603-.602.603-.863 0-.26 0-.344-.086-.43 0-.089-.174-.258-.431-.344a6.384 6.384 0 0 0-2.58-.91 8.945 8.945 0 0 1-2.92-.956 5.268 5.268 0 0 1-2.063-1.806 4.026 4.026 0 0 1-.51-1.984 4.234 4.234 0 0 1 1.888-3.538 6.907 6.907 0 0 1 3.951-1.208c1.447.09 3.008.688 4.725 1.812"/></g></g></svg>